<svg class="svg-top" logoid="19" version="1.1" x="0" y="0" xmlns="http://www.w3.org/2000/svg" xmlns:xlink="http://www.w3.org/1999/xlink" style="transform: scale(2.51); opacity: 1;" width="214" height="140">    <rect class="svg-background" width="100%" height="100%" fill="#f2eee2" data-raw-fill="#F2EEE2"></rect>    <svg class="svg-icon" x="0" y="36" height="40.703830864452804" fill="#de6751" icon-type="common" data-raw-x="0" data-raw-y="0" data-raw-height="60" data-default-height="40.703830864452804" data-raw-icon-id="-733" data-raw-fill="#DE6751">            <svg xmlns="http://www.w3.org/2000/svg" xmlns:xlink="http://www.w3.org/1999/xlink" version="1.1" x="0px" y="0px" viewBox="0 0 100 100" xml:space="preserve"><g><g><path d="M79.3447876,62.0153809c0.8717651-3.079834,1.2387085-6.3292236,1.0795288-9.5806885    c-0.1820068-3.7565308-1.0263062-7.5354004-2.5874023-11.0490112c-1.5739136-3.5028076-3.78302-6.7679443-6.5472412-9.546814    c-2.5790405-2.5536499-5.6102905-4.6964111-8.9452515-6.302124c0-0.005127,0.0007935-0.0101318,0.0007935-0.0152588    c0-6.8227539-5.5507813-12.3735352-12.3735352-12.3735352s-12.3730469,5.5507813-12.3730469,12.3735352    c0,0.8497314,0.0865479,1.6795654,0.2504883,2.4816284c-2.9848022,1.1361694-5.8190308,2.7452393-8.3649292,4.7700806    c-2.9296875,2.3699341-5.4396973,5.309082-7.3851929,8.6269531c-1.9297485,3.3279419-3.21698,7.0629272-3.8261719,10.9346924    c-0.5664063,3.5946045-0.5142822,7.3186646,0.2034302,10.9729614c-3.0474854,2.2559814-5.0353394,5.8655396-5.0353394,9.9397583    c0,6.8227539,5.550293,12.3730469,12.3730469,12.3730469c3.6080322,0,6.8500366-1.5617676,9.1138916-4.0334473    c4.3608398,2.9729614,9.6050415,4.8220215,15.0697632,5.187561c5.6905518,0.4067993,11.6108398-0.8152466,16.8615723-3.5794678    c2.0540161,1.5168457,4.583252,2.425354,7.3268433,2.425354c6.8227539,0,12.3730469-5.550293,12.3730469-12.3730469    C86.559082,68.267395,83.59552,63.9760132,79.3447876,62.0153809z M49.9716797,16.1479492    c5.168457,0,9.3735352,4.2050781,9.3735352,9.3735352s-4.2050781,9.3735352-9.3735352,9.3735352    s-9.3730469-4.2050781-9.3730469-9.3735352S44.8032227,16.1479492,49.9716797,16.1479492z M25.8139648,82.6206055    c-5.168457,0-9.3730469-4.2045898-9.3730469-9.3730469s4.2045898-9.3735352,9.3730469-9.3735352    S35.1875,68.0791016,35.1875,73.2475586S30.9824219,82.6206055,25.8139648,82.6206055z M49.9956055,84.2747192    c-5.0114746,0.3936157-10.2166748-0.5743408-14.9165649-2.8538208c1.9277954-2.1824341,3.1084595-5.0393066,3.1084595-8.1733398    c0-6.8227539-5.5507813-12.3735352-12.3735352-12.3735352c-0.9802246,0-1.9294434,0.1265869-2.8444214,0.3430176    c-0.7603149-2.7282715-1.0919189-5.6165771-0.9651489-8.510498c0.149292-3.4545898,0.9049683-6.9310913,2.3236084-10.1743164    c1.4338379-3.2310181,3.454895-6.2523193,5.9926147-8.8301392c2.1980591-2.194519,4.7687988-4.0452881,7.5786133-5.5007324    c1.2286987,5.5372925,6.1706543,9.6936646,12.0724487,9.6936646c5.086792,0,9.4631958-3.0874023,11.3626099-7.4851074    c2.6455688,1.0220337,5.1708984,2.4271851,7.4467773,4.2163086c2.7020264,2.1623535,5.0214233,4.8531494,6.8274536,7.8927002    c1.7922363,3.0493774,2.9902954,6.4770508,3.5720215,10.0406494c0.5023193,3.0715942,0.5144043,6.2520142,0.005188,9.3791504    c-1.5307007-0.6795654-3.2198486-1.0646973-4.9996948-1.0646973c-6.8227539,0-12.3735352,5.5507813-12.3735352,12.3735352    c0,2.3103027,0.6481323,4.46698,1.7549438,6.319397C59.6395264,82.232605,54.9325562,83.9074097,49.9956055,84.2747192z     M74.1860352,82.6206055c-5.168457,0-9.3735352-4.2045898-9.3735352-9.3730469s4.2050781-9.3735352,9.3735352-9.3735352    s9.3730469,4.2050781,9.3730469,9.3735352S79.3544922,82.6206055,74.1860352,82.6206055z"></path></g></g></svg>    </svg>    <text class="svg-text" fill="#222222" x="24" y="94" font-family="Advent Pro" font-weight="400" font-size="25.000001" letter-spacing="3" data-padding-top="0.252" data-padding-bottom="1.192" data-raw-x="0" data-raw-y="25" data-raw-fill="#222222" data-raw-font-family="Advent Pro" data-raw-font-weight="400" data-raw-font-size="25" data-default-font-size="25.000001" data-default-x="24" data-default-y="94" data-default-letter-spacing="3">abhigyaan</text></svg>